<svg width="21" height="20" viewBox="0 0 21 20" fill="none" xmlns="http://www.w3.org/2000/svg">
<path d="M8.00008 18.3332H13.0001C17.1667 18.3332 18.8334 16.6665 18.8334 12.4998V7.49984C18.8334 3.33317 17.1667 1.6665 13.0001 1.6665H8.00008C3.83341 1.6665 2.16675 3.33317 2.16675 7.49984V12.4998C2.16675 16.6665 3.83341 18.3332 8.00008 18.3332Z" fill="#502369" stroke="#DFC7EC" stroke-width="1.5" stroke-linecap="round" stroke-linejoin="round"/>
<path d="M14.6666 2.0332V10.3499C14.6666 11.9915 13.4916 12.6332 12.0499 11.7665L10.9499 11.1082C10.6999 10.9582 10.2999 10.9582 10.0499 11.1082L8.94992 11.7665C7.50825 12.6249 6.33325 11.9915 6.33325 10.3499V2.0332" stroke="#DFC7EC" stroke-width="1.5" stroke-linecap="round" stroke-linejoin="round"/>
<path d="M8.00008 18.3332H13.0001C17.1667 18.3332 18.8334 16.6665 18.8334 12.4998V7.49984C18.8334 3.33317 17.1667 1.6665 13.0001 1.6665H8.00008C3.83341 1.6665 2.16675 3.33317 2.16675 7.49984V12.4998C2.16675 16.6665 3.83341 18.3332 8.00008 18.3332Z" stroke="#DFC7EC" stroke-width="1.5" stroke-linecap="round" stroke-linejoin="round"/>
<path d="M14.6666 2.0332V10.3499C14.6666 11.9915 13.4916 12.6332 12.0499 11.7665L10.9499 11.1082C10.6999 10.9582 10.2999 10.9582 10.0499 11.1082L8.94992 11.7665C7.50825 12.6249 6.33325 11.9915 6.33325 10.3499V2.0332" stroke="#DFC7EC" stroke-width="1.5" stroke-linecap="round" stroke-linejoin="round"/>
</svg>
