<svg width="21" height="20" viewBox="0 0 21 20" fill="none" xmlns="http://www.w3.org/2000/svg">
<path d="M18.55 8.69992L17.7333 12.1833C17.0333 15.1916 15.65 16.4083 13.05 16.1583C12.6333 16.1249 12.1833 16.0499 11.7 15.9333L10.3 15.5999C6.82499 14.7749 5.74999 13.0583 6.56665 9.57493L7.38332 6.08326C7.54999 5.37493 7.74999 4.75826 7.99999 4.24993C8.97499 2.23326 10.6333 1.69159 13.4167 2.34993L14.8083 2.67493C18.3 3.49159 19.3667 5.21659 18.55 8.69992Z" fill="#502369" stroke="#DFC7EC" stroke-width="1.5" stroke-linecap="round" stroke-linejoin="round"/>
<path d="M13.05 16.1583C12.5334 16.5083 11.8834 16.8 11.0917 17.0583L9.77504 17.4917C6.46671 18.5583 4.72504 17.6667 3.65004 14.3583L2.58337 11.0667C1.51671 7.75833 2.40004 6.00833 5.70837 4.94167L7.02504 4.50833C7.36671 4.4 7.69171 4.30833 8.00004 4.25C7.75004 4.75833 7.55004 5.375 7.38337 6.08333L6.56671 9.575C5.75004 13.0583 6.82504 14.775 10.3 15.6L11.7 15.9333C12.1834 16.05 12.6334 16.125 13.05 16.1583Z" stroke="#DFC7EC" stroke-width="1.5" stroke-linecap="round" stroke-linejoin="round"/>
<path d="M11.0334 7.1084L15.0751 8.1334" stroke="#DFC7EC" stroke-width="1.5" stroke-linecap="round" stroke-linejoin="round"/>
<path d="M10.2166 10.3335L12.6332 10.9502" stroke="#DFC7EC" stroke-width="1.5" stroke-linecap="round" stroke-linejoin="round"/>
</svg>
