<svg width="20" height="20" viewBox="0 0 20 20" fill="none" xmlns="http://www.w3.org/2000/svg">
<path d="M8.37502 2.10824L3.35835 5.38324C1.75002 6.43324 1.75002 8.78324 3.35835 9.83324L8.37502 13.1082C9.27502 13.6999 10.7583 13.6999 11.6583 13.1082L16.65 9.83324C18.25 8.78324 18.25 6.44157 16.65 5.39157L11.6583 2.11657C10.7583 1.51657 9.27502 1.51657 8.37502 2.10824Z" fill="#502369" stroke="#DFC7EC" stroke-width="1.5" stroke-linecap="round" stroke-linejoin="round"/>
<path d="M4.69168 10.8999L4.68335 14.8082C4.68335 15.8666 5.50002 16.9999 6.50002 17.3332L9.15835 18.2166C9.61668 18.3666 10.375 18.3666 10.8417 18.2166L13.5 17.3332C14.5 16.9999 15.3167 15.8666 15.3167 14.8082V10.9416" stroke="#DFC7EC" stroke-width="1.5" stroke-linecap="round" stroke-linejoin="round"/>
<path d="M17.8333 12.5V7.5" stroke="#DFC7EC" stroke-width="1.5" stroke-linecap="round" stroke-linejoin="round"/>
</svg>
