<svg width="21" height="20" viewBox="0 0 21 20" fill="none" xmlns="http://www.w3.org/2000/svg">
<path d="M10.5167 2.4248C7.75841 2.4248 5.51674 4.66647 5.51674 7.4248V9.83314C5.51674 10.3415 5.30007 11.1165 5.04174 11.5498L4.08341 13.1415C3.49174 14.1248 3.90007 15.2165 4.98341 15.5831C8.57507 16.7831 12.4501 16.7831 16.0417 15.5831C17.0501 15.2498 17.4917 14.0581 16.9417 13.1415L15.9834 11.5498C15.7334 11.1165 15.5167 10.3415 15.5167 9.83314V7.4248C15.5167 4.6748 13.2667 2.4248 10.5167 2.4248Z" fill="#502369" stroke="#DFC7EC" stroke-width="1.5" stroke-miterlimit="10" stroke-linecap="round"/>
<path d="M12.0584 2.6667C11.8001 2.5917 11.5334 2.53337 11.2584 2.50003C10.4584 2.40003 9.69176 2.45837 8.9751 2.6667C9.21676 2.05003 9.81676 1.6167 10.5168 1.6167C11.2168 1.6167 11.8168 2.05003 12.0584 2.6667Z" stroke="#DFC7EC" stroke-width="1.5" stroke-miterlimit="10" stroke-linecap="round" stroke-linejoin="round"/>
<path d="M13.0166 15.8833C13.0166 17.2583 11.8916 18.3833 10.5166 18.3833C9.83327 18.3833 9.19993 18.1 8.74993 17.65C8.29993 17.2 8.0166 16.5666 8.0166 15.8833" stroke="#DFC7EC" stroke-width="1.5" stroke-miterlimit="10"/>
</svg>
