<svg width="21" height="20" viewBox="0 0 21 20" fill="none" xmlns="http://www.w3.org/2000/svg">
<path d="M4.05005 9.18353V13.3252C4.05005 14.8419 4.05005 14.8419 5.48338 15.8085L9.42505 18.0835C10.0167 18.4252 10.9834 18.4252 11.575 18.0835L15.5167 15.8085C16.95 14.8419 16.95 14.8419 16.95 13.3252V9.18353C16.95 7.66686 16.95 7.66686 15.5167 6.7002L11.575 4.4252C10.9834 4.08353 10.0167 4.08353 9.42505 4.4252L5.48338 6.7002C4.05005 7.66686 4.05005 7.66686 4.05005 9.18353Z" fill="#502369" stroke="#DFC7EC" stroke-width="1.5" stroke-linecap="round" stroke-linejoin="round"/>
<path d="M15.0834 6.35817V4.1665C15.0834 2.49984 14.2501 1.6665 12.5834 1.6665H8.41675C6.75008 1.6665 5.91675 2.49984 5.91675 4.1665V6.29984" stroke="#DFC7EC" stroke-width="1.5" stroke-linecap="round" stroke-linejoin="round"/>
<path d="M11.025 9.1583L11.5 9.89997C11.575 10.0166 11.7416 10.1333 11.8666 10.1666L12.7166 10.3833C13.2416 10.5166 13.3833 10.9666 13.0416 11.3833L12.4833 12.0583C12.4 12.1666 12.3333 12.3583 12.3416 12.4916L12.3916 13.3666C12.425 13.9083 12.0416 14.1833 11.5416 13.9833L10.725 13.6583C10.6 13.6083 10.3916 13.6083 10.2666 13.6583L9.44998 13.9833C8.94998 14.1833 8.56665 13.9 8.59998 13.3666L8.64998 12.4916C8.65831 12.3583 8.59165 12.1583 8.50831 12.0583L7.94998 11.3833C7.60831 10.9666 7.74998 10.5166 8.27498 10.3833L9.12498 10.1666C9.25831 10.1333 9.42498 10.0083 9.49165 9.89997L9.96665 9.1583C10.2666 8.7083 10.7333 8.7083 11.025 9.1583Z" stroke="#DFC7EC" stroke-width="1.5" stroke-linecap="round" stroke-linejoin="round"/>
</svg>
