<svg width="146" height="32" viewBox="0 0 146 32" fill="none" xmlns="http://www.w3.org/2000/svg">
<path d="M16.0002 8L22.6668 4L29.3335 8V24L22.6668 28L9.3335 20V12L22.6668 20V12L16.0002 8Z" stroke="#F8F0FD" stroke-width="1.5" stroke-miterlimit="10" stroke-linecap="round" stroke-linejoin="round"/>
<path d="M15.9998 8L9.33317 4L2.6665 8V24L9.33317 28L15.5998 23.8267" stroke="#F8F0FD" stroke-width="1.5" stroke-miterlimit="10" stroke-linecap="round" stroke-linejoin="round"/>
<path d="M44.992 26V9.2H52.624C54.448 9.2 56.056 9.552 57.448 10.256C58.84 10.944 59.928 11.912 60.712 13.16C61.496 14.408 61.888 15.888 61.888 17.6C61.888 19.296 61.496 20.776 60.712 22.04C59.928 23.288 58.84 24.264 57.448 24.968C56.056 25.656 54.448 26 52.624 26H44.992ZM48.88 22.808H52.432C53.552 22.808 54.52 22.6 55.336 22.184C56.168 21.752 56.808 21.144 57.256 20.36C57.72 19.576 57.952 18.656 57.952 17.6C57.952 16.528 57.72 15.608 57.256 14.84C56.808 14.056 56.168 13.456 55.336 13.04C54.52 12.608 53.552 12.392 52.432 12.392H48.88V22.808ZM62.3777 26L69.8658 9.2H73.7058L81.2178 26H77.1378L70.9938 11.168H72.5298L66.3618 26H62.3777ZM66.1217 22.4L67.1538 19.448H75.7938L76.8498 22.4H66.1217ZM82.9608 26V9.2H86.8488V26H82.9608ZM90.8358 26V9.2H94.0518L101.204 21.056H99.4998L106.532 9.2H109.724L109.772 26H106.124L106.1 14.792H106.772L101.156 24.224H99.4038L93.6678 14.792H94.4838V26H90.8358ZM111.55 26L119.038 9.2H122.878L130.39 26H126.31L120.166 11.168H121.702L115.534 26H111.55ZM115.294 22.4L116.326 19.448H124.966L126.022 22.4H115.294ZM137.653 26.288C136.309 26.288 135.021 26.112 133.789 25.76C132.557 25.392 131.565 24.92 130.813 24.344L132.133 21.416C132.853 21.928 133.701 22.352 134.677 22.688C135.669 23.008 136.669 23.168 137.677 23.168C138.445 23.168 139.061 23.096 139.525 22.952C140.005 22.792 140.357 22.576 140.581 22.304C140.805 22.032 140.917 21.72 140.917 21.368C140.917 20.92 140.741 20.568 140.389 20.312C140.037 20.04 139.573 19.824 138.997 19.664C138.421 19.488 137.781 19.328 137.077 19.184C136.389 19.024 135.693 18.832 134.989 18.608C134.301 18.384 133.669 18.096 133.093 17.744C132.517 17.392 132.045 16.928 131.677 16.352C131.325 15.776 131.149 15.04 131.149 14.144C131.149 13.184 131.405 12.312 131.917 11.528C132.445 10.728 133.229 10.096 134.269 9.632C135.325 9.152 136.645 8.912 138.229 8.912C139.285 8.912 140.325 9.04 141.349 9.296C142.373 9.536 143.277 9.904 144.061 10.4L142.861 13.352C142.077 12.904 141.293 12.576 140.509 12.368C139.725 12.144 138.957 12.032 138.205 12.032C137.453 12.032 136.837 12.12 136.357 12.296C135.877 12.472 135.533 12.704 135.325 12.992C135.117 13.264 135.013 13.584 135.013 13.952C135.013 14.384 135.189 14.736 135.541 15.008C135.893 15.264 136.357 15.472 136.933 15.632C137.509 15.792 138.141 15.952 138.829 16.112C139.533 16.272 140.229 16.456 140.917 16.664C141.621 16.872 142.261 17.152 142.837 17.504C143.413 17.856 143.877 18.32 144.229 18.896C144.597 19.472 144.781 20.2 144.781 21.08C144.781 22.024 144.517 22.888 143.989 23.672C143.461 24.456 142.669 25.088 141.613 25.568C140.573 26.048 139.253 26.288 137.653 26.288Z" fill="#F8F0FD"/>
</svg>
