<svg width="132" height="32" viewBox="0 0 132 32" fill="none" xmlns="http://www.w3.org/2000/svg">
<path d="M15.9999 8L22.6666 4L29.3333 8V24L22.6666 28L9.33325 20V12L22.6666 20V12L15.9999 8Z" stroke="#F8F0FD" stroke-width="1.5" stroke-miterlimit="10" stroke-linecap="round" stroke-linejoin="round"/>
<path d="M16.0001 8L9.33342 4L2.66675 8V24L9.33342 28L15.6001 23.8267" stroke="#F8F0FD" stroke-width="1.5" stroke-miterlimit="10" stroke-linecap="round" stroke-linejoin="round"/>
<path d="M44.992 26V9.2H48.88V26H44.992ZM56.347 26V12.368H50.971V9.2H65.611V12.368H60.235V26H56.347ZM67.7029 26V9.2H75.3349C77.1589 9.2 78.7669 9.552 80.1589 10.256C81.5509 10.944 82.6389 11.912 83.4229 13.16C84.2069 14.408 84.5989 15.888 84.5989 17.6C84.5989 19.296 84.2069 20.776 83.4229 22.04C82.6389 23.288 81.5509 24.264 80.1589 24.968C78.7669 25.656 77.1589 26 75.3349 26H67.7029ZM71.5909 22.808H75.1429C76.2629 22.808 77.2309 22.6 78.0469 22.184C78.8789 21.752 79.5189 21.144 79.9669 20.36C80.4309 19.576 80.6629 18.656 80.6629 17.6C80.6629 16.528 80.4309 15.608 79.9669 14.84C79.5189 14.056 78.8789 13.456 78.0469 13.04C77.2309 12.608 76.2629 12.392 75.1429 12.392H71.5909V22.808ZM87.5311 26V9.2H91.4191V26H87.5311ZM95.4061 26V9.2H98.6221L105.774 21.056H104.07L111.102 9.2H114.294L114.342 26H110.694L110.67 14.792H111.342L105.726 24.224H103.974L98.2381 14.792H99.0541V26H95.4061ZM123.848 26.288C122.504 26.288 121.216 26.112 119.984 25.76C118.752 25.392 117.76 24.92 117.008 24.344L118.328 21.416C119.048 21.928 119.896 22.352 120.872 22.688C121.864 23.008 122.864 23.168 123.872 23.168C124.64 23.168 125.256 23.096 125.72 22.952C126.2 22.792 126.552 22.576 126.776 22.304C127 22.032 127.112 21.72 127.112 21.368C127.112 20.92 126.936 20.568 126.584 20.312C126.232 20.04 125.768 19.824 125.192 19.664C124.616 19.488 123.976 19.328 123.272 19.184C122.584 19.024 121.888 18.832 121.184 18.608C120.496 18.384 119.864 18.096 119.288 17.744C118.712 17.392 118.24 16.928 117.872 16.352C117.52 15.776 117.344 15.04 117.344 14.144C117.344 13.184 117.6 12.312 118.112 11.528C118.64 10.728 119.424 10.096 120.464 9.632C121.52 9.152 122.84 8.912 124.424 8.912C125.48 8.912 126.52 9.04 127.544 9.296C128.568 9.536 129.472 9.904 130.256 10.4L129.056 13.352C128.272 12.904 127.488 12.576 126.704 12.368C125.92 12.144 125.152 12.032 124.4 12.032C123.648 12.032 123.032 12.12 122.552 12.296C122.072 12.472 121.728 12.704 121.52 12.992C121.312 13.264 121.208 13.584 121.208 13.952C121.208 14.384 121.384 14.736 121.736 15.008C122.088 15.264 122.552 15.472 123.128 15.632C123.704 15.792 124.336 15.952 125.024 16.112C125.728 16.272 126.424 16.456 127.112 16.664C127.816 16.872 128.456 17.152 129.032 17.504C129.608 17.856 130.072 18.32 130.424 18.896C130.792 19.472 130.976 20.2 130.976 21.08C130.976 22.024 130.712 22.888 130.184 23.672C129.656 24.456 128.864 25.088 127.808 25.568C126.768 26.048 125.448 26.288 123.848 26.288Z" fill="#F8F0FD"/>
</svg>
