<svg width="24" height="24" viewBox="0 0 24 24" fill="none" xmlns="http://www.w3.org/2000/svg">
<rect x="0.5" y="0.5" width="23" height="23" rx="7.5" stroke="#EAF7FC"/>
<path d="M12.0122 10.9022L10.9989 12L12.0122 13.0977C12.0527 13.1385 12.0823 13.1903 12.0979 13.2478C12.1135 13.3052 12.1145 13.3661 12.1008 13.4242C12.0871 13.4822 12.0593 13.5351 12.0201 13.5774C11.981 13.6197 11.9321 13.6497 11.8785 13.6644C11.825 13.6793 11.7688 13.6782 11.7158 13.6614C11.6628 13.6446 11.615 13.6126 11.5773 13.5689L10.3466 12.2355C10.289 12.173 10.2566 12.0883 10.2566 12C10.2566 11.9116 10.289 11.8269 10.3466 11.7644L11.5773 10.4311C11.615 10.3872 11.6628 10.3551 11.7158 10.3382C11.7688 10.3213 11.8251 10.3202 11.8786 10.3351C11.9322 10.3499 11.9811 10.3801 12.0201 10.4225C12.0591 10.4649 12.0869 10.5179 12.1004 10.576C12.1141 10.6339 12.1132 10.6948 12.0977 10.7522C12.0821 10.8096 12.0526 10.8614 12.0122 10.9022Z" fill="#EAF7FC"/>
<path d="M8.92303 7.55518H15.6923C16.0886 7.55518 16.4102 7.90362 16.4102 8.33295V15.6663C16.4102 15.8726 16.3346 16.0704 16.1999 16.2163C16.0653 16.3621 15.8827 16.4441 15.6923 16.4441H8.92303C8.73262 16.4441 8.55 16.3621 8.41536 16.2163C8.28072 16.0704 8.20508 15.8726 8.20508 15.6663V8.33295C8.20508 7.90362 8.52672 7.55518 8.92303 7.55518ZM8.82046 8.33295V15.6663C8.82046 15.7276 8.86641 15.7774 8.92303 15.7774H13.5384V8.22184H8.92303C8.89583 8.22184 8.86974 8.23355 8.8505 8.25439C8.83127 8.27522 8.82046 8.30349 8.82046 8.33295ZM14.1538 15.7774H15.6923C15.7195 15.7774 15.7455 15.7657 15.7648 15.7449C15.784 15.724 15.7948 15.6958 15.7948 15.6663V8.33295C15.7948 8.30349 15.784 8.27522 15.7648 8.25439C15.7455 8.23355 15.7195 8.22184 15.6923 8.22184H14.1538V15.7774Z" fill="#EAF7FC"/>
</svg>
