<?xml version="1.0" encoding="iso-8859-1"?>
<!-- Generator: Adobe Illustrator 25.2.3, SVG Export Plug-In . SVG Version: 6.00 Build 0)  -->
<svg version="1.1" baseProfile="basic" id="Layer_1"
	 xmlns="http://www.w3.org/2000/svg" xmlns:xlink="http://www.w3.org/1999/xlink" x="0px" y="0px" viewBox="0 0 48 48"
	 xml:space="preserve">
<rect x="-1483" y="-485" style="display:none;fill:#AFFF92;" width="4453" height="2063"/>
<linearGradient id="SVGID_1_" gradientUnits="userSpaceOnUse" x1="-21.3621" y1="50.1898" x2="68.1521" y2="-1.4913">
	<stop  offset="0" style="stop-color:#262626;stop-opacity:0"/>
	<stop  offset="1" style="stop-color:#262626;stop-opacity:0.8"/>
</linearGradient>
<path style="fill:url(#SVGID_1_);" d="M38,14H6v-4c0-2.2,1.8-4,4-4h32v4C42,12.2,40.2,14,38,14z M42,24v-4H10c-2.2,0-4,1.8-4,4v4h32
	C40.2,28,42,26.2,42,24z M42,38v-4H10c-2.2,0-4,1.8-4,4v4h32C40.2,42,42,40.2,42,38z"/>
</svg>